<svg width="19" height="20" fill="none" xmlns="http://www.w3.org/2000/svg"><g clip-path="url(#a)" fill="#9F937F"><path d="M17.873 3.912a2.3 2.3 0 0 0-1.77-.828H3.68l-.032-.27A2.305 2.305 0 0 0 1.36.78h-.17a.768.768 0 0 0 0 1.537h.17a.768.768 0 0 1 .763.679l1.057 8.99a3.842 3.842 0 0 0 3.816 3.393h8.024a.768.768 0 1 0 0-1.536H6.996a2.306 2.306 0 0 1-2.167-1.537h9.16a3.842 3.842 0 0 0 3.78-3.16l.603-3.346a2.3 2.3 0 0 0-.499-1.887Zm-1.009 1.614-.604 3.346a2.306 2.306 0 0 1-2.272 1.896H4.585l-.723-6.147h12.241a.769.769 0 0 1 .761.905ZM5.8 19.22a1.537 1.537 0 1 0 0-3.073 1.537 1.537 0 0 0 0 3.074ZM13.483 19.22a1.537 1.537 0 1 0 0-3.073 1.537 1.537 0 0 0 0 3.074Z"/></g><defs><clipPath id="a"><path fill="#fff" transform="translate(0.420898 0.779297)" d="M0 0h18.441v18.441H0z"/></clipPath></defs></svg>