<svg xmlns="http://www.w3.org/2000/svg" width="21" height="20" viewBox="0 0 21 20">
<style>
    <![CDATA[
        .hover-me {
            fill:#cd6727;
        }
        .direct {
            fill:#676055;
        }
    ]]>
</style>
    <!--<path class="hover-me" fill-rule="evenodd" d="M18.08 20c-.48 0-.96-.2-1.34-.58l-2.98-2.96c-.78-.76-.76-1.98 0-2.74.78-.78 1.96-.78 2.74 0l2.98 2.98c.76.76.78 1.98 0 2.72-.42.4-.92.58-1.4.58zM7.82 2.4c-1.44 0-2.84.58-3.84 1.58S2.4 6.38 2.4 7.82s.58 2.82 1.58 3.84c1 1 2.4 1.58 3.84 1.58s2.82-.56 3.84-1.58a5.417 5.417 0 0 0 1.58-3.84c0-1.44-.58-2.84-1.58-3.84C10.6 2.92 9.26 2.4 7.82 2.4zm0 13.18c-2.12 0-4.04-.8-5.52-2.3A7.764 7.764 0 0 1 0 7.76c0-2.06.82-4.02 2.26-5.5C3.7.76 5.7 0 7.82 0c2.1 0 4.02.82 5.52 2.3a7.798 7.798 0 0 1 2.3 5.52c0 2.06-.8 4.02-2.3 5.52-1.5 1.5-3.46 2.24-5.52 2.24z"/>-->
    <path class="direct" fill-rule="evenodd" d="M18.08 20c-.48 0-.96-.2-1.34-.58l-2.98-2.96c-.78-.76-.76-1.98 0-2.74.78-.78 1.96-.78 2.74 0l2.98 2.98c.76.76.78 1.98 0 2.72-.42.4-.92.58-1.4.58zM7.82 2.4c-1.44 0-2.84.58-3.84 1.58S2.4 6.38 2.4 7.82s.58 2.82 1.58 3.84c1 1 2.4 1.58 3.84 1.58s2.82-.56 3.84-1.58a5.417 5.417 0 0 0 1.58-3.84c0-1.44-.58-2.84-1.58-3.84C10.6 2.92 9.26 2.4 7.82 2.4zm0 13.18c-2.12 0-4.04-.8-5.52-2.3A7.764 7.764 0 0 1 0 7.76c0-2.06.82-4.02 2.26-5.5C3.7.76 5.7 0 7.82 0c2.1 0 4.02.82 5.52 2.3a7.798 7.798 0 0 1 2.3 5.52c0 2.06-.8 4.02-2.3 5.52-1.5 1.5-3.46 2.24-5.52 2.24z"/>
</svg>
