<svg width="210" height="153" xmlns="http://www.w3.org/2000/svg"><path d="M72.68 90.07c1.14 3.103 2.475 6.124 4.272 8.938 3.16 4.95 12.454 11.46 19.904 9.48.78-.208.884.286.133.739-8.93 5.368-21.527.967-27.854-6.813-3.395-4.176-4.764-9.446-9.49-12.658 4.745-1.278 9.54-2.81 13.034.314m-7.156-25.811c9.409-.844 17.669.475 24.908 6.192 1.175.927 2.376 1.882 1.834 4.615-.508 2.557-.269 5.577-.589 8.174-.929 7.56.501 14.744 4.425 20.627-4.37 3.19-12.632.76-15.63-3.024-3.698-4.667-5.42-10.547-7.149-16.155-2.363-7.66-2.044-14.82-7.8-20.43m38.67-13.23c3.331 12.16 13.799 21.292 13.799 34.387 0 7.32-4.652 19.518-12.505 22.535-8.62-6.087-11.394-15.203-11.394-24.826 0-14.431 8.57-22.175 10.1-32.096m14.873 23.694c-.242-.927.13-1.61.72-2.2 7.612-7.635 17.542-9.213 27.973-8.278-5.755 5.609-6.221 12.784-8.582 20.444-1.73 5.608-3.453 11.488-7.15 16.155-3.323 4.193-13.09 6.7-16.88 1.764 1.777-2.997 3.045-6.319 3.869-9.352 1.692-6.23 1.628-12.485.05-18.533m35.777 14.59c-4.725 3.21-8.085 8.926-11.48 13.102-6.512 8.006-19.663 12.436-28.625 6.32-.879-.6-.539-.996.468-.63 7.233 2.625 17.087-4 20.34-9.096 1.796-2.814 3.132-5.835 4.272-8.938 3.494-3.124 10.281-2.038 15.025-.758m-100.022.727c-.595-.132-3.268-2.571-2.221-2.907 6.199-1.995 13.773-2.875 19.32.788a228.438 228.438 0 0 1-1.802-5.658c-2.01-6.52-3.97-14.955-9.95-19.018-.268-.181-2.696-2.558-1.4-2.722 12.415-1.576 25.355 1.295 34.418 10.376.008.008.011.015.019.023 3.195-8.617 9.7-23.805 10.809-29.345.438-2.19.993-.788 1.139.118 1.77 10.977 8.024 18.62 12.215 28.184.293.67.795 1.933 1.642 1.085 9.072-9.072 22.307-12.017 34.72-10.441 1.297.164-1.132 2.541-1.4 2.722-5.98 4.063-7.94 12.498-9.95 19.018-.583 1.89-1.169 3.784-1.802 5.658 5.549-3.663 13.158-2.892 19.322-.788 1.44.49 1.956 2 1.937 2.144-.022.145-3.21.554-4.158.763-5.856 1.289-9.09 8.215-12.71 12.489-2.731 3.22-5.738 6.422-9.427 8.56-7.707 4.468-19.607 4.987-26.246-1.828a14.598 14.598 0 0 1-3.925 2.014c-.53.395-1.163.55-1.68.197a29.526 29.526 0 0 1-1.606-1.178c-6.794 5.71-17.837 5.023-25.128.795-3.688-2.138-6.696-5.34-9.425-8.56-3.622-4.274-6.86-11.188-12.711-12.489Zm130.678 29.037c.507-.88 1.145.146.795 1.002-.35.855-11.552 14.578-27.198 16.975-17.403 2.666-39.424-17.8-54.016-17.8-18.768 0-31.654 14.644-54.019 14.644-7.93 0-14.83-5.577-15.482-6.05-.652-.47.321-.725.794-.441.47.286 7.612 4.693 14.115 4.693 17.606 0 36.797-15.86 54.91-15.86 15.226 0 35.61 19.014 53.012 16.348 16.432-2.517 26.582-12.631 27.089-13.51Zm-81.779 6.263c10.833 0 20.4 6.859 29.065 13.484.595.383-.162 1.27-.704 1.009-8.972-5.273-18.149-9.8-28.718-9.8-17.605 0-38.987 13.516-54.186 12.591-16.373-.996-26.712-9.737-28.514-11.998.093-.102.18-.209.253-.325 2.274 1.26 11.723 8.298 28.127 9.297 14.566.884 37.072-14.258 54.677-14.258Z" fill="#C7942B" fill-rule="evenodd"/></svg>