<svg width="210" height="153" xmlns="http://www.w3.org/2000/svg" xmlns:xlink="http://www.w3.org/1999/xlink"><defs><path id="a" d="M0 .154h106.811V76H.001z"/></defs><g fill="none" fill-rule="evenodd"><g transform="translate(-789.000000, -1667.000000) translate(274.000000, 1568.000000) translate(27.000000, 99.000000) translate(488.000000, 0.000000) translate(50.000000, 62.000000) translate(0.000000, 0.846500)"><mask id="b" fill="#fff"><use xlink:href="#a"/></mask><path d="M82.154 3.405c.852-1.64 2.28-1.259 2.906-.386-.98.264-2.031.555-3.132.865.107-.234.184-.397.226-.479M19.303 20.893c.777-1.496 2.036-1.312 2.725-.606-.96.248-1.894.492-2.786.73l.06-.124m85.104 23.867c-2.572 1.46-7.947 5.298-18.292 6.65-14.237 1.86-22.204-5.529-22.204-5.529S76.732 15.751 80.9 6.207a240.654 240.654 0 0 0 4.952-1.579c2.558 5.333 12.702 25.94 18.956 35.55.365.561 1.052.561.535-.414-5.121-9.665-14.517-28.749-17.91-35.672 3.29-1.147 5.095-1.978 5.029-2.458-.051-.374-2.322.067-5.765.955a290.31 290.31 0 0 1-.522-1.07c-.591-1.222-3.648-2.81-5.367 1.193-.116.27-.363.855-.716 1.695-9.55 2.743-21.955 6.643-27.011 8.101C47.906 14 34.42 17.125 23.735 19.85l-.411-.842c-.591-1.222-3.648-2.81-5.367 1.192l-.556 1.315c-4.834 1.323-8.18 2.405-8.296 2.927-.13.584 2.695.265 7.347-.665C12.09 34.18.196 62.698.196 62.698c-1.664 4.538 7.418 14.02 22.77 13.258 14.489-.718 20.6-12.045 20.6-12.045.712-.888.686-3.193-2.01-1.663-2.572 1.46-7.947 5.298-18.293 6.65-14.237 1.86-22.204-5.529-22.204-5.529s13.076-30.727 17.11-39.948c1.504-.318 3.158-.687 4.93-1.099 2.715 5.642 12.683 25.855 18.859 35.344.365.56 1.05.561.535-.414-5.035-9.5-14.204-28.112-17.737-35.319 8.743-2.075 19.977-5.069 30.575-8.175 9.349-2.74 17.503-5.094 23.775-7.002-4.51 10.764-16.06 38.454-16.06 38.454-1.664 4.54 7.418 14.02 22.77 13.26 14.49-.72 20.6-12.047 20.6-12.047.713-.888.687-3.193-2.01-1.663" fill="#C7942B" mask="url(#b)"/></g><path d="M101.706 79.642c-.75 0-3.689 5.436-3.689 6.311s7.252.689 7.252 0c0-.686-3.064-6.311-3.564-6.311" fill="#C7942B"/></g></svg>