<svg width="19" height="20" fill="none" xmlns="http://www.w3.org/2000/svg"><path d="M5.763 10.768a3.457 3.457 0 1 1 0-6.914 3.457 3.457 0 0 1 0 6.914Zm0-5.378a1.92 1.92 0 1 0 0 3.841 1.92 1.92 0 0 0 0-3.841Zm5.763 10.757a3.847 3.847 0 0 0-3.842-3.842H3.842A3.846 3.846 0 0 0 0 16.147v3.073h1.537v-3.073a2.305 2.305 0 0 1 2.305-2.305h3.842a2.305 2.305 0 0 1 2.305 2.305v3.073h1.537v-3.073Zm1.92-8.452a3.458 3.458 0 1 1 0-6.916 3.458 3.458 0 0 1 0 6.916Zm0-5.379a1.921 1.921 0 1 0 0 3.842 1.921 1.921 0 0 0 0-3.842Zm4.995 10.757a3.847 3.847 0 0 0-3.842-3.842h-3.073v1.537h3.073a2.305 2.305 0 0 1 2.305 2.305v3.074h1.537v-3.074Z" fill="#9F937F"/></svg>