<svg width="17" height="20" fill="none" xmlns="http://www.w3.org/2000/svg"><path d="m16.153 14.558-2.96 2.697a7.524 7.524 0 0 1-5.077 1.966H1.043a.685.685 0 1 1 0-1.371h7.073c1.54 0 3.015-.571 4.154-1.609l2.936-2.674c.238-.239.295-.647.107-.908a.689.689 0 0 0-1.047-.091l-2.902 2.663a2.05 2.05 0 0 1-1.411.563H6.526a.685.685 0 1 1 0-1.371h3.427c.172 0 .685-.079.685-.685a.686.686 0 0 0-.685-.686H6.586a6.132 6.132 0 0 0-4.362 1.807l-.684.722a.685.685 0 1 1-.994-.944l.697-.734a7.502 7.502 0 0 1 5.344-2.22h3.366a2.06 2.06 0 0 1 1.891 1.249l1.474-1.353a2.06 2.06 0 0 1 3.107.28c.58.805.462 1.964-.271 2.7v-.001ZM5.819 4.206c0-1.133.922-2.056 2.056-2.056v-.685a.685.685 0 1 1 1.37 0v.685h.184c.732 0 1.414.393 1.78 1.027a.685.685 0 1 1-1.185.687.688.688 0 0 0-.594-.343H7.876a.686.686 0 0 0-.686.685c0 .26.186.479.442.522l2.084.346c.92.154 1.587.942 1.587 1.874a2.059 2.059 0 0 1-2.057 2.056v.685a.685.685 0 1 1-1.37 0v-.685h-.184a2.063 2.063 0 0 1-1.78-1.028.685.685 0 1 1 1.185-.686c.123.212.35.343.594.343h1.555a.686.686 0 0 0 .685-.685.527.527 0 0 0-.442-.522l-2.084-.347A1.893 1.893 0 0 1 5.82 4.206Z" fill="#9F937F"/></svg>